<svg xmlns="http://www.w3.org/2000/svg" xmlns:xlink="http://www.w3.org/1999/xlink" viewBox="0 0 26 25.99"><defs><style>.cls-1{fill:none;}.cls-2{clip-path:url(#clip-path);}.cls-3{fill:#fff;}</style><clipPath id="clip-path" transform="translate(0 -0.04)"><rect class="cls-1" width="26" height="26"/></clipPath></defs><g id="Layer_2" data-name="Layer 2"><g id="Layer_1-2" data-name="Layer 1"><g class="cls-2"><path class="cls-3" d="M13,5.28A7.76,7.76,0,1,0,20.75,13,7.76,7.76,0,0,0,13,5.28Zm3.89,5.9-4.68,4.41a.44.44,0,0,1-.33.13.47.47,0,0,1-.33-.14L9.1,13.07a.47.47,0,0,1,.67-.67l2.13,2.19,4.34-4.1a.47.47,0,1,1,.65.69Z" transform="translate(0 -0.04)"/><path class="cls-3" d="M24.14,15.86,26,13l-1.86-2.83a.42.42,0,0,1-.08-.28l.19-3.39L21.23,5A.45.45,0,0,1,21,4.8l-1.53-3L16.12,2a.6.6,0,0,1-.29-.08L13,0,10.17,1.9A.54.54,0,0,1,9.89,2L6.5,1.79,5,4.8a.45.45,0,0,1-.2.21l-3,1.52.19,3.39a.4.4,0,0,1-.08.28L0,13l1.86,2.82a.44.44,0,0,1,.08.29l-.19,3.38,3,1.52a.45.45,0,0,1,.2.21l1.53,3,3.38-.19h0a.59.59,0,0,1,.26.07L13,26l2.83-1.87a.45.45,0,0,1,.28-.07l3.39.19,1.52-3a.53.53,0,0,1,.21-.21l3-1.52-.19-3.38a.5.5,0,0,1,.09-.29ZM13,21.73A8.7,8.7,0,1,1,21.7,13,8.7,8.7,0,0,1,13,21.73Z" transform="translate(0 -0.04)"/></g></g></g></svg>